<svg width="18" height="12" viewBox="0 0 18 12" fill="none" xmlns="http://www.w3.org/2000/svg">
<path d="M16.5 1.87524H11.25V0.375244H16.5V1.87524ZM17.7945 9.37524C17.463 10.348 16.2727 11.6252 13.9687 11.6252C11.6632 11.6252 9.79575 10.3285 9.79575 7.36899C9.79575 4.43649 11.5395 2.92899 13.8952 2.92899C16.2067 2.92899 17.6182 4.26549 17.9265 6.24849C17.985 6.62799 18.0082 7.13949 17.9977 7.85349H11.9775C12.075 10.2617 14.5897 10.3375 15.4185 9.37524H17.7945ZM12.03 6.37524H15.7537C15.675 5.21499 14.9017 4.71099 13.896 4.71099C12.7965 4.71099 12.1882 5.28699 12.03 6.37524ZM4.8495 11.6162H0V0.390994H5.21475C9.32175 0.451744 9.39975 4.47399 7.25475 5.57049C9.8505 6.51549 9.9375 11.6162 4.8495 11.6162ZM2.25 4.87524H4.938C6.819 4.87524 7.1175 2.62524 4.704 2.62524H2.25V4.87524ZM4.79325 7.12524H2.25V9.38725H4.75575C7.047 9.38725 6.90675 7.12524 4.79325 7.12524Z" fill="#030510"/>
</svg>
