<svg width="18" height="18" viewBox="0 0 18 18" fill="none" xmlns="http://www.w3.org/2000/svg">
<path fill-rule="evenodd" clip-rule="evenodd" d="M9 0C4.03146 0 0 4.03146 0 9C0 13.9685 4.03146 18 9 18C13.9588 18 18 13.9685 18 9C18 4.03146 13.9588 0 9 0ZM14.9447 4.14859C16.0184 5.45661 16.6627 7.12582 16.6822 8.93167C16.4284 8.88286 13.8905 8.36552 11.333 8.68763C11.2744 8.56075 11.2256 8.42407 11.167 8.28742C11.0109 7.91649 10.8351 7.53579 10.6594 7.17462C13.4902 6.02278 14.7787 4.36334 14.9447 4.14859ZM9 1.32755C10.9523 1.32755 12.7386 2.05965 14.0954 3.2603C13.9588 3.45553 12.7972 5.0076 10.064 6.03254C8.80477 3.71909 7.40889 1.82538 7.19415 1.53254C7.77006 1.39588 8.37527 1.32755 9 1.32755ZM5.72994 2.04989C5.93492 2.32321 7.30152 4.22669 8.58026 6.49132C4.98807 7.44793 1.81562 7.42842 1.47397 7.42842C1.97179 5.04664 3.58243 3.06508 5.72994 2.04989ZM1.30803 9.00976C1.30803 8.93167 1.30803 8.85359 1.30803 8.77549C1.63991 8.78524 5.36877 8.83406 9.20498 7.68222C9.4295 8.11172 9.63448 8.55097 9.82971 8.99024C9.7321 9.01953 9.62473 9.04882 9.52711 9.07808C5.564 10.3568 3.45553 13.8514 3.27983 14.1443C2.05965 12.7874 1.30803 10.9816 1.30803 9.00976ZM9 16.692C7.22344 16.692 5.58351 16.0868 4.28524 15.0716C4.42192 14.7885 5.98374 11.782 10.3178 10.269C10.3373 10.2592 10.3471 10.2592 10.3666 10.2495C11.4501 13.051 11.8894 15.4035 12.0065 16.077C11.0792 16.4772 10.064 16.692 9 16.692ZM13.2853 15.3742C13.2072 14.9056 12.7972 12.6605 11.7918 9.89806C14.2028 9.51736 16.3113 10.1421 16.5748 10.2299C16.2429 12.3677 15.013 14.2126 13.2853 15.3742Z" fill="#030510"/>
</svg>
