<svg width="20" height="18" viewBox="0 0 20 18" fill="none" xmlns="http://www.w3.org/2000/svg">
<path fill-rule="evenodd" clip-rule="evenodd" d="M4.85961 18V5.85473H0.822743V18H4.85961ZM2.84116 4.1965C4.24889 4.1965 5.12509 3.26388 5.12509 2.09837C5.09886 0.90663 4.24889 -0.000112534 2.86786 -0.000112534C1.48697 -0.000112534 0.584106 0.90663 0.584106 2.09837C0.584106 3.26388 1.46012 4.1965 2.81484 4.1965H2.84116Z" fill="#030510"/>
<path fill-rule="evenodd" clip-rule="evenodd" d="M7.09332 18H11.1301V11.2176C11.1301 10.8546 11.1564 10.492 11.263 10.2325C11.5548 9.50722 12.219 8.75609 13.3342 8.75609C14.795 8.75609 15.3793 9.86985 15.3793 11.5026V18H19.4158V11.0361C19.4158 7.30559 17.4242 5.56973 14.7683 5.56973C12.5905 5.56973 11.6345 6.78699 11.1033 7.61611H11.1303V5.85473H7.09343C7.14641 6.99436 7.09332 18 7.09332 18Z" fill="#030510"/>
</svg>
